<svg width="800" height="800" viewBox="0 0 800 800" fill="none" xmlns="http://www.w3.org/2000/svg">
<path opacity="0.1" d="M100 400C100 337.147 100 305.719 119.526 286.193C139.052 266.666 170.479 266.667 233.333 266.667H350H466.667C529.52 266.667 560.947 266.666 580.473 286.193C600 305.719 600 337.147 600 400C600 462.853 600 494.28 580.473 513.806C560.947 533.333 529.52 533.333 466.667 533.333H350H233.333C170.479 533.333 139.052 533.333 119.526 513.806C100 494.28 100 462.853 100 400Z" fill="white"/>
<path d="M700 366.667V433.333" stroke="white" stroke-width="66.6667" stroke-linecap="round" stroke-linejoin="round"/>
<path d="M233.339 433.333L200.006 366.667" stroke="#FEBB1B" stroke-width="66.6667" stroke-linecap="round" stroke-linejoin="round"/>
<path d="M100 400C100 337.147 100 305.719 119.526 286.193C139.052 266.666 170.479 266.667 233.333 266.667H350H466.667C529.52 266.667 560.947 266.666 580.473 286.193C600 305.719 600 337.147 600 400C600 462.853 600 494.28 580.473 513.806C560.947 533.333 529.52 533.333 466.667 533.333H350H233.333C170.479 533.333 139.052 533.333 119.526 513.806C100 494.28 100 462.853 100 400Z" stroke="white" stroke-width="66.6667" stroke-linejoin="round"/>
</svg>
