<svg width="800" height="800" viewBox="0 0 800 800" fill="none" xmlns="http://www.w3.org/2000/svg">
<path d="M731.266 355.133C734.032 362.574 734.032 370.76 731.266 378.2C721.641 404.411 709.589 429.665 695.266 453.633C690.717 461.214 683.344 466.677 674.767 468.822C666.191 470.966 657.113 469.615 649.533 465.067C641.952 460.518 636.488 453.145 634.344 444.568C632.2 435.991 633.551 426.914 638.099 419.333C648.183 402.488 656.932 384.878 664.266 366.667C615.033 244.767 512.466 166.667 399.999 166.667C287.533 166.667 184.966 244.767 135.733 366.667C152.348 412.758 179.635 454.264 215.363 487.79C251.091 521.316 294.246 545.912 341.299 559.567C345.573 560.591 349.602 562.45 353.155 565.037C356.707 567.624 359.713 570.888 361.999 574.641C364.286 578.394 365.807 582.562 366.477 586.906C367.146 591.249 366.95 595.682 365.899 599.949C364.849 604.217 362.965 608.234 360.356 611.771C357.748 615.307 354.465 618.293 350.698 620.556C346.931 622.819 342.753 624.315 338.406 624.958C334.058 625.6 329.627 625.377 325.366 624.3C265.749 607.339 211.189 576.044 166.449 533.146C121.71 490.249 88.1498 437.052 68.6993 378.2C65.9336 370.76 65.9336 362.574 68.6993 355.133C125.766 200.167 255.799 100 399.999 100C544.199 100 674.233 200.167 731.266 355.133ZM399.999 500C373.628 500 347.85 492.18 325.923 477.529C303.997 462.878 286.907 442.055 276.815 417.691C266.724 393.328 264.083 366.519 269.228 340.655C274.373 314.79 287.071 291.033 305.718 272.386C324.365 253.739 348.123 241.04 373.987 235.895C399.851 230.751 426.66 233.391 451.024 243.483C475.387 253.574 496.211 270.664 510.862 292.591C525.513 314.517 533.333 340.296 533.333 366.667C533.333 402.029 519.285 435.943 494.28 460.948C469.275 485.952 435.361 500 399.999 500ZM466.666 366.667C466.666 353.481 462.756 340.592 455.431 329.629C448.105 318.665 437.693 310.121 425.512 305.075C413.33 300.029 399.925 298.709 386.993 301.281C374.061 303.853 362.182 310.203 352.859 319.526C343.535 328.85 337.186 340.729 334.614 353.661C332.041 366.593 333.361 379.997 338.407 392.179C343.453 404.361 351.998 414.773 362.961 422.098C373.925 429.423 386.814 433.333 399.999 433.333C417.68 433.333 434.637 426.31 447.14 413.807C459.642 401.305 466.666 384.348 466.666 366.667Z" fill="white"/>
<path d="M633.332 500.007C642.171 500.007 650.648 503.517 656.899 509.766C663.148 516.017 666.658 524.494 666.658 533.333C666.658 542.172 663.148 550.649 656.899 556.9L613.799 600L656.899 643.1C662.971 649.386 666.331 657.806 666.255 666.546C666.179 675.286 662.673 683.647 656.493 689.827C650.312 696.007 641.952 699.513 633.212 699.589C624.472 699.665 616.052 696.305 609.765 690.233L566.665 647.133L523.565 690.233C520.491 693.417 516.812 695.956 512.746 697.703C508.679 699.45 504.305 700.37 499.879 700.408C495.453 700.447 491.064 699.603 486.967 697.927C482.87 696.251 479.149 693.776 476.019 690.646C472.889 687.516 470.414 683.795 468.738 679.698C467.062 675.602 466.219 671.212 466.257 666.786C466.296 662.36 467.215 657.986 468.962 653.92C470.709 649.853 473.248 646.175 476.432 643.1L519.532 600L476.432 556.9C470.36 550.613 467 542.193 467.076 533.453C467.152 524.713 470.658 516.353 476.838 510.172C483.018 503.992 491.379 500.487 500.119 500.411C508.859 500.335 517.279 503.694 523.565 509.766L566.665 552.866L609.765 509.766C616.016 503.517 624.493 500.007 633.332 500.007Z" fill="#FEBB1B"/>
</svg>
