<svg width="800" height="800" viewBox="0 0 800 800" fill="none" xmlns="http://www.w3.org/2000/svg">
<path d="M399.5 25.0252C278 25.0252 155 117.325 155 293.775C155 304.125 163.4 312.525 173.75 312.525C184.1 312.525 192.5 304.125 192.5 293.775C192.5 134.9 299.8 62.5252 399.5 62.5252C499.2 62.5252 606.5 134.9 606.5 293.775C606.625 296.825 606.675 300.4 606.675 304C606.675 322.9 604.9 341.4 601.525 359.325L601.825 357.475C592.5 400.375 573.85 437.925 548.05 469.375C548.05 469.375 553.35 462.975 548.425 468.925C543.5 474.875 538.025 480.3 532.65 485.675C523.725 494.125 515.65 503.275 508.4 513.1L508 513.675C497.625 528.975 487.425 546.675 478.5 565.1L477.375 567.675C470.975 579.425 464.9 593.3 459.975 607.7L459.4 609.65C457.15 617.125 455.575 625.85 454.975 634.825L454.95 635.2C454.55 641.625 453.55 647.6 451.975 653.35L452.125 652.725C449.85 660.5 447.25 667.125 444.175 673.45L444.525 672.675C438.225 684.8 430.175 695.1 420.525 703.675L420.425 703.775C400.3 720.95 374.9 732.5 346.975 735.75L346.325 735.8C340.075 736.65 332.875 737.15 325.55 737.15C303.2 737.15 281.925 732.625 262.55 724.425L263.6 724.825C238.575 714.375 218.55 696.05 206.2 673L205.9 672.4C198.4 657.175 194 639.25 194 620.3C194 619.775 194 619.225 194 618.7V618.775C194 608.425 185.6 600.025 175.25 600.025C164.9 600.025 156.5 608.425 156.5 618.775C156.5 619.2 156.5 619.725 156.5 620.225C156.5 645.325 162.35 669.05 172.8 690.1L172.4 689.175C189.075 720.725 215.575 745.225 247.775 758.925L248.775 759.3C271 769.025 296.925 774.675 324.15 774.675C324.425 774.675 324.7 774.675 324.95 774.675H324.9H325C334.2 774.675 343.25 774.075 352.15 772.9L351.1 773.025C387.525 768.825 419.85 753.95 445.55 731.625L445.325 731.8C458.525 720.05 469.45 706.075 477.575 690.4L477.95 689.6C481.55 682.4 484.95 673.875 487.6 665.025L487.9 663.85C490.1 656.5 491.65 647.95 492.225 639.15L492.25 638.8C492.675 632.2 493.7 626.05 495.325 620.125L495.175 620.775C500.05 606.55 505.375 594.5 511.55 583.025L510.9 584.35C520.025 565.175 529.3 549.025 539.625 533.625L538.725 535.025C545.05 526.55 551.75 519.075 559.05 512.2L559.15 512.125C565.4 505.875 571.65 499.625 577.375 492.7C606.5 457.25 627.85 414.3 638.15 367.225L638.525 365.25C642.15 347.025 644.225 326.075 644.225 304.625C644.225 300.8 644.15 297 644.025 293.2L644.05 293.75C644.05 117.3 521.05 25.0002 399.55 25.0002L399.5 25.0252Z" fill="white"/>
<path d="M402.05 436.4C398.725 437.325 394.85 437.975 390.85 438.175H390.725C341.225 446.25 303.9 488.725 303.9 539.875C303.9 540.625 303.9 541.375 303.925 542.125V542C303.925 600.5 241.425 600.5 241.425 542C241.425 531.65 233.025 523.25 222.675 523.25C212.325 523.25 203.925 531.65 203.925 542C203.65 544.325 203.5 547 203.5 549.725C203.5 588.525 234.125 620.2 272.525 621.875H272.675C311.225 620.2 341.85 588.525 341.85 549.725C341.85 547 341.7 544.325 341.4 541.675L341.425 542C341.425 541.725 341.425 541.4 341.425 541.075C341.425 507.525 366.15 479.75 398.4 475L398.775 474.95C406.65 474.475 413.95 472.425 420.475 469.1C420.475 469.1 414 472.95 420.175 469.25C426.35 465.55 431.5 460.825 435.55 455.225L435.65 455.075C453.35 433.45 464.1 375.1 464.1 375.1C464.1 375.1 455.425 322.4 440.675 301.7L440.95 302.075C419.35 273.1 385.2 254.55 346.7 254.55C325.5 254.55 305.6 260.175 288.425 270.025L289 269.725C300.175 218.75 344.5 181 397.825 180.05H397.925C398.1 180.05 398.3 180.05 398.5 180.05C429.2 180.05 456.925 192.775 476.7 213.25L476.725 213.275C499.6 238.825 513.575 272.725 513.575 309.925C513.575 312.425 513.5 314.875 513.4 317.35L513.425 317C513.425 327.35 521.825 335.75 532.175 335.75C542.525 335.75 550.925 327.35 550.925 317C551.425 312.3 551.7 306.85 551.7 301.35C551.7 215.4 483.45 145.4 398.2 142.575H397.95C312.45 145.425 244.225 215.425 244.225 301.35C244.225 306.875 244.5 312.3 245.05 317.675L245 317C245 327.35 253.4 335.75 263.75 335.75C272.425 335.675 279.65 329.65 281.575 321.55L281.6 321.425C282.45 320.75 283.65 320.9 284.4 320.075C299.425 302.9 321.375 292.1 345.85 292.1C372.4 292.1 395.975 304.8 410.85 324.45L411 324.65C420.8 338.75 426.65 356.25 426.65 375.1C426.65 396.875 418.85 416.825 405.875 432.3L406 432.15C404.925 433.775 403.625 435.15 402.15 436.325L402.1 436.35L402.05 436.4Z" fill="#FEBB1B"/>
</svg>
