<svg width="800" height="800" viewBox="0 0 800 800" fill="none" xmlns="http://www.w3.org/2000/svg">
<path d="M27.4349 724.24L76.6949 773.5C103.818 800 134.683 797.817 162.119 767.575L488.543 412.158C501.949 421.511 514.419 421.2 529.696 418.082L563.056 411.222L585.193 433.358L583.635 449.882C581.452 467.03 586.439 480.124 602.338 496.024L628.529 521.901C644.428 538.112 665.626 539.048 680.905 523.771L784.726 419.952C799.999 404.675 799.066 383.787 783.168 367.575L756.976 341.387C741.078 325.485 727.669 319.874 710.832 322.368L694.001 324.238L672.796 303.038L682.151 266.561C686.518 248.48 681.838 233.825 662.198 214.495L585.193 137.801C472.019 25.2525 327.046 28.681 227.902 128.76C214.185 142.477 212.938 161.184 221.668 174.901C228.838 186.748 244.115 193.92 265.003 188.62C313.328 176.46 353.61 182.382 401 214.495L389.088 262.821C381.605 281.527 382.229 296.802 389.712 310.832L33.3592 638.815C3.42918 666.562 -0.00082016 696.804 27.4349 724.24ZM277.475 141.23C362.588 77.6296 468.589 87.9167 545.285 164.612L629.148 247.855C636.632 255.338 637.571 261.261 635.386 270.615L623.542 320.498L673.735 370.692L704.288 367.887C713.329 366.951 716.132 367.575 723.615 374.745L743.262 394.7L655.652 482.618L635.699 462.665C628.529 455.494 627.903 452.688 628.842 443.647L631.645 412.781L581.765 362.898L530.008 372.875C520.966 374.745 516.291 374.745 508.496 366.951L439.283 297.427C431.801 289.944 430.865 285.58 434.918 275.602L465.472 202.65C414.342 153.701 346.688 126.577 281.528 147.465C278.722 148.401 276.851 147.777 275.916 146.53C274.981 144.971 274.981 143.412 277.475 141.23ZM67.9649 701.792C52.0649 685.892 57.6763 676.227 68.2763 666.562L418.395 343.57L457.365 382.851L133.436 731.722C123.772 742.322 111.613 745.44 98.5192 732.658L67.9649 701.792Z" fill="white"/>
<path d="M277.134 140.675C362.247 77.0754 468.249 87.3626 544.944 164.058L628.807 247.301C636.292 254.784 637.23 260.707 635.046 270.061L623.202 319.944L673.394 370.138L703.947 367.333C712.989 366.397 715.792 367.021 723.274 374.191L742.922 394.145L655.311 482.064L635.359 462.111C628.189 454.94 627.563 452.134 628.502 443.093L631.304 412.227L581.424 362.344L529.667 372.321C520.626 374.191 515.95 374.191 508.156 366.397L438.943 296.873C431.46 289.39 430.524 285.025 434.577 275.048L465.132 202.095C414.002 153.147 346.347 126.023 281.187 146.911C278.382 147.847 276.51 147.223 275.576 145.975C274.64 144.417 274.64 142.858 277.134 140.675Z" fill="#FEBB1B"/>
</svg>
