<svg width="800" height="800" viewBox="0 0 800 800" fill="none" xmlns="http://www.w3.org/2000/svg">
<path d="M75 400H725M75 400L175 300M75 400L175 500M725 400L625 300M725 400L625 500M400 75V725M400 75L300 175M400 75L500 175M400 725L300 625M400 725L500 625" stroke="white" stroke-width="50" stroke-linecap="round" stroke-linejoin="round"/>
<path d="M300 175L400 75L500 175M300 625L400 725L500 625M625 300L725 400L625 500M175 300L75 400L175 500" stroke="#FEBB1B" stroke-width="50" stroke-linecap="round" stroke-linejoin="round"/>
</svg>
