<svg width="748" height="348" viewBox="0 0 748 348" fill="none" xmlns="http://www.w3.org/2000/svg">
<path fill-rule="evenodd" clip-rule="evenodd" d="M99.5998 149C70.3498 149 46.5998 126.8 46.5998 99.4996C46.5998 72.1996 70.3498 49.9496 99.5998 49.9496C121.25 49.9496 140.4 62.0996 148.65 80.8996C154.05 93.3496 167.7 98.6496 179.05 92.7496C190.55 86.8996 195.4 72.1496 190 59.7496C174.4 23.6496 138.9 0.349609 99.5498 0.349609C45.0498 0.349609 0.799805 44.8996 0.799805 99.4996C0.799805 154.2 45.0498 198.55 99.8498 198.55C129.4 198.55 153.2 220.95 153.2 248.4C153.2 275.75 129.35 298.1 99.8498 298.1C77.9498 298.1 58.5998 285.8 50.3498 266.9C45.0498 254.4 31.2998 249.1 19.9498 254.9C8.4498 260.7 3.5998 275.55 8.9498 287.9C24.6498 324.3 60.2998 347.7 99.8498 347.7C154.5 347.7 199 303.1 199 248.4C199.1 193.6 154.6 149 99.5998 149Z" fill="white"/>
<path fill-rule="evenodd" clip-rule="evenodd" d="M648.949 148.4C620.049 148.4 596.499 126.25 596.499 99.0498C596.499 71.8998 620.049 49.7498 648.949 49.7498C670.499 49.7498 689.599 61.8498 697.749 80.5998C703.049 92.9498 716.649 98.2998 727.949 92.3998C739.349 86.5998 744.099 71.8498 738.749 59.4498C723.249 23.5498 687.999 0.299805 648.999 0.299805C594.999 0.299805 551.149 44.6498 551.149 99.0498C551.149 153.55 594.999 197.75 649.449 197.75C678.699 197.75 702.399 220.05 702.399 247.3C702.399 274.65 678.699 296.85 649.449 296.85C627.749 296.85 608.499 284.65 600.399 265.75C594.999 253.4 581.549 248.1 570.149 253.9C558.799 259.65 553.999 274.4 559.299 286.7C574.899 322.95 610.299 346.25 649.499 346.25C703.749 346.25 747.899 301.85 747.899 247.3C747.749 192.8 703.599 148.4 648.949 148.4Z" fill="white"/>
<path fill-rule="evenodd" clip-rule="evenodd" d="M376.45 0.299805H372.75C322.55 0.299805 250.55 40.5998 250.55 90.0498V257.7C250.55 307.25 322.55 347.5 372.75 347.5H376.45C426.7 347.5 498.65 307.25 498.65 257.7V90.0498C498.7 40.5998 426.7 0.299805 376.45 0.299805ZM451.75 246.65C451.75 277.45 407 302.5 375.75 302.5H373.4C342.2 302.5 297.35 277.45 297.35 246.65V101.75C297.35 70.9998 342.2 45.8998 373.4 45.8998H375.75C407 45.8998 451.75 70.9998 451.75 101.75V246.65Z" fill="#FEBB1B"/>
</svg>
